<svg width="1024" height="1024" viewBox="0 0 1024 1024" fill="none" xmlns="http://www.w3.org/2000/svg">
  <!-- Background with iOS-style rounded corners -->
  <rect width="1024" height="1024" rx="224" fill="#3B82F6"/>
  
  <!-- Open Book Icon - White -->
  <g transform="translate(512, 512)">
    <!-- Left page -->
    <path d="M-40 -200 C-40 -200 -180 -180 -280 -140 C-300 -132 -320 -110 -320 -80 L-320 200 C-320 220 -300 232 -280 226 C-180 190 -40 170 -40 170 Z" 
          fill="white" fill-opacity="0.95"/>
    
    <!-- Right page -->
    <path d="M40 -200 C40 -200 180 -180 280 -140 C300 -132 320 -110 320 -80 L320 200 C320 220 300 232 280 226 C180 190 40 170 40 170 Z" 
          fill="white" fill-opacity="0.85"/>
    
    <!-- Center binding/spine -->
    <path d="M0 -200 L0 170" stroke="rgba(59, 130, 246, 0.15)" stroke-width="8" stroke-linecap="round"/>
  </g>
</svg>
